<?xml version="1.0" encoding="utf-8"?>
<!-- Generator: Adobe Illustrator 28.0.0, SVG Export Plug-In . SVG Version: 6.00 Build 0)  -->
<svg version="1.1" id="Layer_1" xmlns="http://www.w3.org/2000/svg" xmlns:xlink="http://www.w3.org/1999/xlink" x="0px" y="0px"
	 viewBox="0 0 64 64" style="enable-background:new 0 0 64 64;" xml:space="preserve">
<style type="text/css">
	.st0{fill:#0077B6;}
</style>
<path class="st0" d="M32,2C15.4,2,2,15.4,2,32s13.4,30,30,30s30-13.4,30-30S48.6,2,32,2z M48.7,23.5l-19,22c-0.4,0.5-1,0.8-1.6,0.8
	c0,0-0.1,0-0.1,0c-0.6,0-1.2-0.2-1.6-0.7l-11-11c-0.9-0.9-0.9-2.3,0-3.2c0.9-0.9,2.3-0.9,3.2,0l9.3,9.3l17.4-20.2
	c0.8-0.9,2.2-1,3.2-0.2C49.4,21.1,49.5,22.5,48.7,23.5z"/>
</svg>
